<svg fill="none" height="24" viewBox="0 0 24 24" width="24" xmlns="http://www.w3.org/2000/svg" xmlns:xlink="http://www.w3.org/1999/xlink"><clipPath id="a"><path d="m0 0h24v24h-24z"/></clipPath><g clip-path="url(#a)" fill="#000">
<path fill="#fff" d="m3.41429 2.99992c-.39053-.39052-1.02369-.39052-1.41421 0-.39053.39053-.39053 1.02369 0 1.41422l2.77057 2.77057c-.43749.88633-.70503 1.87157-.76005 2.91319-2.28752.4591-4.0106 2.4794-4.0106 4.9021 0 2.7614 2.23858 5 5 5h12.5859l2 1.9999c.3905.3906 1.0237.3906 1.4142 0 .3905-.3905.3905-1.0237 0-1.4142z"/>
<path d="m24 14c0 1.8496-.837 3.5038-2.1528 4.6044l-14.40989-14.40983c1.17074-.75589 2.56549-1.1946 4.06269-1.1946 3.276 0 6.0614 2.10039 7.0831 5.02797 3.0401.29317 5.4169 2.85506 5.4169 5.97206z" fill="#fff"/></g></svg>
